PathFileType	4	(X/Y/Z)	c:/Users/goper/Files/vsCode/490R/osim_files/C11/C11_SSWS_01.trc
DataRate	CameraRate	NumFrames	NumMarkers	Units                	OrigDataRate	OrigDataStartFrame	OrigNumFrames
120.00	120.00	8	36	mm	120.0	425	1131
                Frame#	Time	LPSI			LASI			LTH1			LTH2			LTH3			LTH4			LLFE			LMFE			LSH1			LSH2			LSH3			LSH4			LLMA			LMMA			LCAL			LMTP			LTOE			LMTP			RPSI			RASI			RTH1			RTH2			RTH3			RTH4			RLFE			RMFE			RSH1			RSH2			RSH3			RSH4			RLMA			RMMA			RCAL			RMTP			RTOE			RMTP		
		X1	Y1	Z1	X2	Y2	Z2	X3	Y3	Z3	X4	Y4	Z4	X5	Y5	Z5	X6	Y6	Z6	X7	Y7	Z7	X8	Y8	Z8	X9	Y9	Z9	X10	Y10	Z10	X11	Y11	Z11	X12	Y12	Z12	X13	Y13	Z13	X14	Y14	Z14	X15	Y15	Z15	X16	Y16	Z16	X17	Y17	Z17	X18	Y18	Z18	X19	Y19	Z19	X20	Y20	Z20	X21	Y21	Z21	X22	Y22	Z22	X23	Y23	Z23	X24	Y24	Z24	X25	Y25	Z25	X26	Y26	Z26	X27	Y27	Z27	X28	Y28	Z28	X29	Y29	Z29	X30	Y30	Z30	X31	Y31	Z31	X32	Y32	Z32	X33	Y33	Z33	X34	Y34	Z34	X35	Y35	Z35	X36	Y36	Z36

425	3.53333	936.03290	963.97528	187.58447	765.49335	962.75464	272.47528	898.44830	572.90686	294.20789	897.15283	524.89484	293.70361	842.65900	567.34918	315.66638	848.43768	521.47955	309.04068	890.86407	461.28641	299.25217	852.70685	449.82172	190.51103	994.95636	428.87299	304.06378	1027.53247	398.77579	302.72394	955.32416	375.28485	311.46213	996.26416	355.42310	309.97360	1224.92346	206.37762	243.35884	1183.00342	202.88890	153.98737	1280.12805	235.62277	183.04016	1195.51599	85.56600	259.95639	1138.83179	62.72392	193.45160	1168.39954	73.10332	145.98047	927.14111	979.52014	105.61744	755.37555	962.01813	41.32851	713.02954	611.56128	10.30966	694.54193	573.87720	21.53051	655.60645	635.26099	24.75716	646.30377	593.21295	31.35667	646.59033	507.34717	46.24682	676.42761	489.34207	155.03824	691.34534	390.82114	27.62230	681.97882	346.29758	32.25261	630.57300	397.47208	42.05836	629.43201	349.79831	43.45407	649.26868	92.84817	93.24657	619.68634	105.24593	189.65028	708.53961	57.87045	151.29979	491.85886	50.31083	166.64117	489.43591	64.61555	116.49570	532.66565	39.96384	57.20110
426	3.54167	925.59064	963.67737	187.84709	755.12958	963.25623	272.69922	881.04993	571.00897	293.87726	878.20197	522.58301	293.55734	824.72961	566.14368	315.91309	829.49261	520.23993	309.30835	870.10254	460.10504	300.10236	831.68835	448.91483	190.49579	972.75946	429.51331	304.84143	1007.07654	401.42868	303.52969	932.26465	374.68616	311.67474	976.56055	357.09583	310.80865	1210.73267	216.51086	245.36565	1167.79480	210.28723	155.66589	1263.06384	249.11765	185.10077	1189.29846	92.86372	260.83539	1131.60815	64.90586	194.82465	1161.00073	79.85244	147.71260	917.50635	980.44763	105.67397	745.48383	963.61688	40.70605	705.91364	611.30756	10.15278	687.76434	573.95721	21.53248	648.17108	634.93054	23.94790	639.21149	592.78925	30.58227	639.64551	507.18546	46.22339	669.57715	490.00201	154.99117	685.65900	391.28275	27.50137	677.42120	346.79868	31.91938	624.93335	397.04950	41.98273	624.31677	349.19763	43.68675	649.05878	92.94585	93.46614	619.47491	105.18085	189.76749	708.45551	57.91930	151.28400	491.66257	49.79841	166.67902	489.18301	64.06779	116.57202	532.47681	39.86103	57.10774
427	3.55000	915.97650	963.96954	187.62212	745.99072	963.84222	271.47424	862.38391	568.57422	293.91595	859.42017	520.89783	293.34064	806.63019	565.65466	316.27768	810.81171	519.64551	309.57272	849.26410	459.39557	300.86533	810.88635	448.57648	190.51013	951.17169	431.54919	305.73441	985.93945	403.93338	304.45911	914.74799	377.38025	313.16052	956.24042	358.55063	311.75256	1193.62708	225.49107	247.39366	1151.54016	217.59439	157.26784	1244.15076	261.75015	187.27539	1182.64673	99.57912	261.50583	1123.88062	66.59756	196.35852	1152.39929	86.77209	149.43964	907.72205	981.33813	105.43204	736.11096	964.98547	40.13848	699.33752	612.15033	10.70325	681.26892	574.06683	21.42660	640.77997	634.45990	22.84333	632.48792	592.48529	29.85530	633.45624	506.83533	45.91482	663.13995	489.99271	154.87845	681.08643	391.50546	27.75225	673.38983	346.83414	32.40536	619.81995	396.55905	41.85876	619.96454	348.37057	43.87236	648.83191	93.04999	93.66696	619.33020	105.12705	189.87305	708.41534	57.98438	151.28540	491.55618	49.52122	166.73279	488.98566	63.69331	116.62120	532.44318	39.80742	57.03202
428	3.55833	906.54456	964.40228	187.31851	736.10352	964.78864	271.68216	844.80811	567.52545	293.48221	840.71942	519.84625	293.00827	789.23859	565.77985	316.61868	792.30206	519.68201	309.80264	828.66113	459.46750	301.61856	790.29193	448.95798	190.53954	929.29858	433.26041	306.48499	964.13098	406.10800	305.63458	893.02045	378.10059	313.61099	936.72101	361.63702	313.29846	1176.25952	234.93326	249.36816	1133.95288	224.23169	158.83890	1223.82166	273.79523	189.24879	1175.22742	106.59315	261.87393	1115.09937	67.48573	197.83974	1142.14807	93.15952	151.22572	898.20245	982.41486	105.08433	726.55609	966.40686	39.83908	693.49426	613.37531	11.63766	674.96454	574.33246	21.17382	633.93091	633.78760	21.50291	625.92523	592.24139	29.26378	627.84119	506.53021	45.41552	656.74457	489.82642	154.80447	677.29626	391.78125	28.36982	670.32147	346.97604	33.19510	615.13751	396.10406	41.69828	616.40491	347.57318	43.89862	648.66565	93.08630	93.85219	619.16455	105.04293	189.90218	708.38550	57.99598	151.29695	491.43002	49.31549	166.74530	488.82761	63.37039	116.68737	532.39081	39.73814	56.98527
429	3.56667	897.31323	965.11346	186.82024	727.62732	965.85895	270.85391	827.87958	567.23566	293.02823	822.21167	519.56244	292.58597	772.21259	566.51184	316.92010	774.81860	520.70227	310.19965	807.95520	460.09641	302.29575	769.97290	450.06406	190.45314	907.31238	434.73657	307.06192	942.76392	408.43027	306.53906	872.78931	380.04111	314.43149	915.08112	362.73163	313.62769	1145.92981	236.43578	246.18513	1115.11621	229.84117	160.38474	1201.24573	284.62244	190.89130	1167.68542	113.09995	261.92709	1106.36694	67.14125	199.63361	1130.84973	98.82395	153.31949	888.94897	983.54810	104.66857	716.99408	967.97662	39.20825	685.91571	613.58472	9.80388	668.65900	574.82452	20.76483	626.69226	633.70941	20.36204	619.41919	592.19897	28.74728	622.65698	506.25482	45.02567	650.85229	489.88269	154.63371	674.38367	392.49823	29.10816	667.88239	347.33777	34.05740	610.86591	395.68292	41.50310	613.66724	347.06137	43.65330	648.58417	93.12807	93.97530	619.10059	104.96408	189.84854	708.41718	58.06279	151.28786	491.44461	49.21319	166.73822	488.78195	63.16824	116.66222	532.36816	39.65470	56.94012
430	3.57500	888.18323	966.03278	186.37318	718.12201	967.10077	269.82571	809.87970	567.26477	292.58182	804.20538	520.07233	292.09879	755.76178	567.93890	317.27777	755.96692	521.84760	310.43320	787.66998	461.49374	303.01849	750.01892	451.70523	190.42546	886.46362	437.60522	307.72504	921.50787	410.83981	307.41190	853.51892	383.63074	315.25281	895.11023	365.31949	314.68503	1134.12830	247.31519	251.87125	1095.50085	234.26694	161.92471	1179.22046	294.23599	192.61980	1156.48230	120.79790	263.29190	1096.34204	68.99796	201.55653	1118.96167	103.78648	155.30174	879.81958	984.82434	104.27020	707.87885	969.59448	38.73859	679.44128	614.37848	9.31943	662.61572	575.33325	20.34330	619.62433	633.94550	19.23802	613.31207	592.25977	28.44321	617.91638	506.14572	44.60301	645.64410	490.18549	154.42310	671.79797	393.18610	30.04258	665.80524	347.88159	34.81800	606.98492	395.29416	41.27499	611.57452	346.90677	43.16908	648.51422	93.15012	94.10935	619.12463	104.93481	189.84451	708.46008	58.12482	151.30069	491.49341	49.10040	166.76398	488.77014	63.02443	116.68364	532.35406	39.61686	56.94256
431	3.58333	879.21027	967.19183	185.96675	709.04773	968.73834	269.30768	792.52362	568.01678	292.03183	785.50879	520.78857	291.84372	737.93195	569.73291	317.40692	738.07666	523.80176	310.60556	767.52460	463.31015	303.67233	730.27283	453.80075	190.40784	865.40393	439.88925	308.23376	900.46429	413.22867	308.11325	832.82794	385.99893	316.20786	874.01099	367.55313	314.55826	1114.75293	253.69595	253.33788	1076.16992	237.93274	163.07652	1156.92395	301.10052	193.79623	1140.21240	127.55828	265.88062	1083.52185	73.48686	203.70120	1105.34924	108.44930	157.45175	870.86469	986.29041	103.84109	699.04510	971.24316	38.05733	673.37708	615.13782	8.77771	656.89148	575.96326	19.79494	613.74841	633.98279	19.22355	607.42761	592.26349	27.96155	613.43945	505.96561	44.23979	641.66394	490.60123	154.09479	669.38391	393.89502	30.39139	663.69171	348.50940	35.20514	603.47443	394.93631	41.01572	609.37671	346.69119	42.83916	648.46033	93.23497	94.19448	619.08344	104.94984	189.83722	708.42957	58.16228	151.31535	491.45316	49.02406	166.80418	488.71326	62.89471	116.72346	532.34180	39.58992	56.92696
432	3.59167	870.33887	968.61334	185.58167	700.43982	970.69897	269.19989	775.84503	569.52295	291.46683	767.54419	522.41693	291.44824	721.07605	572.22919	317.53311	720.04791	526.03381	310.74359	747.71045	465.71445	304.21576	710.59509	456.22290	190.42250	844.17462	441.63821	309.24139	879.87695	415.76572	308.73801	812.15729	388.42154	316.51422	853.03516	369.79306	314.99582	1094.22986	258.25104	254.45538	1057.14282	241.54591	164.19664	1136.38354	306.71930	194.97281	1123.51416	133.39279	268.35297	1068.02917	77.57548	206.58551	1089.05310	112.55753	160.06007	862.04266	987.81793	103.45139	690.19519	972.99915	37.55894	667.50928	615.85724	8.18421	651.47772	576.53955	19.22881	607.83954	634.05170	18.99141	601.79584	592.42841	27.51948	609.19141	505.98474	43.92523	636.57983	490.97699	153.98299	666.50067	394.39645	30.64570	661.46466	349.01273	35.22519	600.31409	394.60782	40.72712	607.07446	346.63275	42.45815	648.37762	93.31217	94.23423	618.95868	105.09007	189.74710	708.42462	58.25979	151.25615	491.39600	49.04404	166.78885	488.68204	62.80042	116.70292	532.33459	39.57312	56.86842
